<mxfile host="app.diagrams.net" modified="2023-06-27T02:38:15.985Z" agent="Mozilla/5.0 (Macintosh; Intel Mac OS X 10_15_7) AppleWebKit/537.36 (KHTML, like Gecko) Chrome/113.0.0.0 Safari/537.36" version="21.5.0" etag="fjymrqwY0HTzzKF3areD" type="github">
  <diagram name="ページ1" id="iipsHcUKPTlbDsdFMyrd">
    <mxGraphModel>
      <root>
        <mxCell id="0" />
        <mxCell id="1" parent="0" />
      </root>
    </mxGraphModel>
  </diagram>
</mxfile>
